# xmcd
#
# Track frame offsets: 
#        150
#        19212
#        34837
#        49525
#        67812
#        86537
#        102700
#        115400
#        133587
#        151325
#        169887
#        186750
#        200587
#        216575
#        232912
#        250575
#        267050
#        281612
#        292500
#
# Disc length: 4112 seconds
#
# Revision: 1
# Processed by: cddbd v1.4PL0 Copyright (c) Steve Scherf et al.
# Submitted via: ExactAudioCopy v0.90b4
#
DISCID=0b100e13
DTITLE=Juice Newton - Anthology
DYEAR=1900
DGENRE=Country
TTITLE0=Angel Of The Morning
TTITLE1=Queen Of Hearts
TTITLE2=Love's Been A Little Bit Hard On Me
TTITLE3=Break It To Me Gently
TTITLE4=Heart Of The Night
TTITLE5=The Sweetest Thing (I've Ever Known)
TTITLE6=Love Is Word
TTITLE7=Can't Wait All Night
TTITLE8=A Little Love
TTITLE9=You Make Me Want To Make You Mine
TTITLE10=Hurt
TTITLE11=Old Flame
TTITLE12=Cheap Love
TTITLE13=What Can I Do With My Heart
TTITLE14=Both To Each Other (Friends And Lovers) With Eddie Rabbitt
TTITLE15=First Time Caller
TTITLE16=Tell Me True
TTITLE17=When Love Comes Around The Bend
TTITLE18=Easy Way Out
EXTD=
EXTT0=
EXTT1=
EXTT2=
EXTT3=
EXTT4=
EXTT5=
EXTT6=
EXTT7=
EXTT8=
EXTT9=
EXTT10=
EXTT11=
EXTT12=
EXTT13=
EXTT14=
EXTT15=
EXTT16=
EXTT17=
EXTT18=
PLAYORDER=
